<?xml version="1.0" encoding="utf-8"?>
<!-- Generator: Adobe Illustrator 16.0.0, SVG Export Plug-In . SVG Version: 6.00 Build 0)  -->
<!DOCTYPE svg PUBLIC "-//W3C//DTD SVG 1.1//EN" "http://www.w3.org/Graphics/SVG/1.1/DTD/svg11.dtd">
<svg version="1.1" id="Layer_1" xmlns="http://www.w3.org/2000/svg" xmlns:xlink="http://www.w3.org/1999/xlink" x="0px" y="0px"
	 width="700px" height="700px" viewBox="0 75 700 700" enable-background="new 0 75 700 700" xml:space="preserve">
<g>
	<path d="M346.26,634.503c-3.275,1.1-5.156,3.74-5.746,7.854c-1.076,7.559,1.145,19.119,6.336,34.498
		c3.887,11.504,6.505,21.715,8.658,30.068c1.87,7.275,3.298,12.828,4.432,16.184c1.7-15.244,0.623-30.113-1.995-44.664
		c-2.686-14.916-7.038-29.58-11.685-43.951V634.503z M365.946,719.819c0.487-1.416,0.997-3.025,1.507-4.771
		c2.777-9.564,4.466-22.768,4.466-36.391c0-1.654-0.022-3.049-0.08-4.172c-0.51-11.707-3.173-22.303-7.468-29.885
		c-3.287-5.803-7.492-9.668-12.286-10.506c4.534,14.086,8.75,28.502,11.425,43.361C366.003,691.259,367.136,705.37,365.946,719.819z
		 M395.73,118.847c0.033-1.247,1.064-2.233,2.312-2.21c1.247,0.034,2.232,1.065,2.21,2.312
		c-1.824,74.177-17.94,114.002-36.255,148.342c20.071-18.802,38.307-37.015,55.238-57.914c21.034-25.953,40.12-56.088,58.355-96.719
		c0.317-0.714,1.156-1.031,1.87-0.714s1.031,1.156,0.714,1.87c-18.349,40.891-37.559,71.219-58.741,97.354
		c-18.62,22.973-38.737,42.67-61.109,63.421c8.138-4.205,16.037-7.242,23.891-9.837c2.448-1.485,4.896-2.97,7.355-4.443
		c45.051-27.223,89.715-54.208,126.05-111.373c0.419-0.657,1.292-0.861,1.949-0.442c0.657,0.419,0.861,1.292,0.442,1.949
		c-36.04,56.701-80.048,83.912-124.565,110.817c1.519-0.454,3.049-0.896,4.579-1.349c35.405-10.381,72.454-21.228,128.293-98.215
		c0.453-0.635,1.349-0.771,1.973-0.317c0.635,0.454,0.771,1.349,0.317,1.972c-56.406,77.758-93.931,88.751-129.801,99.257
		c-5.146,1.507-10.245,3.003-15.38,4.692c-7.809,4.737-15.628,9.542-23.381,14.541c6.415-2.176,12.626-3.751,18.723-4.986
		c1.395-0.454,2.788-0.907,4.171-1.36c46.807-15.243,87.086-28.356,145.418-81.316c0.691-0.635,1.769-0.578,2.403,0.113
		s0.578,1.768-0.113,2.403c-51.975,47.192-89.692,63.024-130.288,76.658l0.34-0.045c36.538-5.18,74.755-10.585,141.089-78.722
		c0.544-0.555,1.439-0.566,1.994-0.022c0.556,0.544,0.566,1.439,0.022,1.995c-67.014,68.827-105.717,74.312-142.731,79.56
		c-5.735,0.816-11.424,1.621-17.17,2.663c-9.634,3.14-19.527,6.358-29.887,10.019l0.125,0.057
		c12.444-2.766,24.095-4.976,35.383-7.106c48.371-9.146,89.998-17.012,154.609-62.096c0.771-0.532,1.824-0.351,2.357,0.419
		c0.532,0.771,0.352,1.825-0.42,2.357c-65.223,45.515-107.168,53.437-155.924,62.662c-9.271,1.756-18.79,3.547-28.741,5.667
		c11.356,0.079,22.214,0.453,32.765,0.816c49.209,1.689,91.539,3.14,164.47-26.679c0.861-0.351,1.847,0.068,2.21,0.93
		c0.352,0.861-0.068,1.847-0.93,2.21c-73.609,30.101-116.269,28.639-165.852,26.939c-7.548-0.26-15.267-0.521-23.347-0.68
		c11.741,2.913,23.244,6.12,34.725,9.327c50.706,14.144,100.969,28.164,167.507,15.436c0.771-0.147,1.508,0.352,1.655,1.122
		s-0.352,1.507-1.122,1.655c-67.173,12.852-117.765-1.258-168.788-15.493c-11.095-3.094-22.213-6.2-33.513-9.021
		c7.424,3.797,14.757,7.684,22.066,11.56c46.523,24.639,92.639,49.062,160.344,50.818c0.782,0.023,1.395,0.669,1.383,1.439
		c-0.022,0.782-0.668,1.394-1.439,1.383c-68.385-1.779-114.795-26.35-161.602-51.136l-0.453-0.238
		c4.125,3.105,8.114,6.29,12.126,9.509c28.81,23.052,58.956,47.169,154.043,48.767c0.782,0.011,1.405,0.658,1.394,1.428
		c-0.011,0.782-0.657,1.405-1.428,1.394c-96.05-1.609-126.57-26.033-155.754-49.379c-12.263-9.814-24.287-19.437-40.913-27.03
		c10.732,9.35,18.745,19.244,26.883,29.286c23.233,28.673,47.532,58.661,140.08,80.5c0.759,0.182,1.235,0.941,1.054,1.7
		s-0.94,1.235-1.7,1.054c-93.488-22.066-118.104-52.439-141.633-81.475c-9.746-12.036-19.312-23.834-33.592-34.668
		c3.105,44.313-1.326,87.674-5.791,131.319c-6.607,64.646-13.294,129.96,4.896,199.263c8.738,1.123,15.901,7.141,21.069,16.24
		c5.168,9.113,8.341,21.512,8.931,34.975c0.079,1.791,0.113,3.344,0.113,4.658c0,14.574-1.882,28.934-4.953,39.543
		c-3.502,12.08-9.135,19.945-16.32,19.945c-10.075,0-12.807-10.584-17.396-28.424c-2.085-8.092-4.624-17.963-8.443-29.273
		c-5.757-17.045-8.137-30.305-6.822-39.645c1.258-8.84,5.326-14.494,12.421-16.896c-18.155-70.607-11.424-136.408-4.76-201.541
		c4.353-42.546,8.67-84.808,5.859-127.705c-12.568,10.144-21.42,21.08-30.441,32.198c-23.528,29.036-48.144,59.42-141.632,81.475
		c-0.76,0.182-1.519-0.294-1.7-1.054c-0.181-0.76,0.294-1.519,1.054-1.7c92.559-21.839,116.858-51.828,140.08-80.5
		c8.148-10.053,16.161-19.936,26.883-29.286c-16.627,7.593-28.651,17.215-40.914,27.03c-29.184,23.347-59.704,47.781-155.754,49.379
		c-0.782,0.011-1.417-0.612-1.428-1.394c-0.011-0.782,0.612-1.417,1.394-1.428c95.086-1.586,125.222-25.704,154.042-48.767
		c4.012-3.208,7.99-6.392,12.127-9.509l-0.453,0.238c-46.807,24.786-93.217,49.368-161.603,51.136
		c-0.782,0.022-1.428-0.601-1.439-1.383c-0.022-0.782,0.601-1.428,1.383-1.439c67.706-1.756,113.832-26.18,160.344-50.818
		c7.321-3.876,14.642-7.752,22.066-11.56c-11.3,2.822-22.417,5.927-33.513,9.021c-51.022,14.234-101.615,28.344-168.788,15.492
		c-0.771-0.147-1.269-0.884-1.122-1.654c0.147-0.771,0.884-1.27,1.654-1.122c66.538,12.728,116.801-1.292,167.507-15.436
		c11.48-3.208,22.984-6.415,34.726-9.327c-8.081,0.159-15.799,0.419-23.347,0.68c-49.583,1.7-92.242,3.162-165.852-26.939
		c-0.861-0.352-1.281-1.337-0.93-2.21c0.352-0.861,1.337-1.28,2.21-0.929c72.93,29.818,115.271,28.367,164.47,26.679
		c10.54-0.363,21.397-0.737,32.764-0.816c-9.95-2.108-19.471-3.91-28.741-5.667c-48.756-9.214-90.701-17.147-155.924-62.662
		c-0.771-0.533-0.952-1.587-0.419-2.357s1.587-0.952,2.357-0.419c64.611,45.084,106.228,52.961,154.609,62.095
		c11.209,2.12,22.77,4.307,35.111,7.049l0.317-0.022c-10.325-3.649-20.196-6.868-29.807-9.996
		c-5.746-1.042-11.436-1.847-17.17-2.663c-37.003-5.236-75.718-10.722-142.732-79.56c-0.544-0.556-0.533-1.451,0.023-1.995
		c0.555-0.544,1.451-0.533,1.995,0.022c66.334,68.136,104.55,73.553,141.088,78.721l0.34,0.045
		c-40.585-13.634-78.313-29.466-130.288-76.659c-0.691-0.635-0.748-1.7-0.113-2.402c0.634-0.691,1.7-0.748,2.402-0.113
		c58.333,52.972,98.611,66.084,145.418,81.316c1.383,0.453,2.776,0.907,4.171,1.36c6.108,1.247,12.308,2.811,18.723,4.987
		c-7.752-5.009-15.561-9.803-23.381-14.541c-5.122-1.689-10.234-3.185-15.379-4.692c-35.87-10.518-73.395-21.511-129.8-99.258
		c-0.454-0.634-0.317-1.519,0.317-1.972c0.634-0.453,1.519-0.317,1.972,0.317c55.839,76.976,92.877,87.833,128.293,98.215
		c1.53,0.453,3.049,0.895,4.579,1.349c-44.517-26.906-88.524-54.117-124.564-110.817c-0.419-0.658-0.227-1.53,0.442-1.95
		c0.657-0.419,1.53-0.227,1.949,0.442c36.334,57.165,81,84.15,126.049,111.373c2.448,1.484,4.896,2.958,7.344,4.442
		c7.775,2.573,15.606,5.587,23.664,9.724c-1.824-1.655-3.638-3.298-5.439-4.941c-45.685-41.446-83.992-76.205-117.13-150.053
		c-0.317-0.714,0-1.553,0.714-1.87c0.714-0.317,1.553,0,1.87,0.714c32.889,73.304,71.003,107.882,116.45,149.112l0.307,0.284
		c-18.405-34.431-34.658-74.279-36.482-148.773c-0.034-1.247,0.963-2.278,2.21-2.312c1.247-0.034,2.278,0.963,2.312,2.21
		c2.006,81.804,21.658,121.312,42.262,158.225l0.748,0.68c-0.986-12.909,0.726-25.409,2.89-37.854
		c-1.076-29.693-10.46-45.367-22.031-64.69c-4.828-8.058-10.02-16.739-15.142-27.234l3.06-1.485
		c5.101,10.449,10.234,19.029,14.994,26.985c10.053,16.785,18.484,30.872,21.477,53.323c5.372-30.26,8.727-60.735-23.664-95.155
		c-0.861-0.907-0.815-2.346,0.103-3.196c0.906-0.861,2.346-0.816,3.195,0.102c35.893,38.148,29.863,71.32,23.834,104.504
		c-0.805,4.409-1.609,8.817-2.3,13.237c-0.034,8.387-0.658,17.816-1.995,28.594l-0.057-0.011c0.057,1.212,0.136,2.425,0.249,3.638
		l1.609-1.484c20.593-36.901,40.223-76.421,42.229-158.191L395.73,118.847z M328.285,272.379
		c5.429,3.377,10.857,6.812,16.264,10.381c-0.635-1.122-1.258-2.244-1.893-3.377C337.794,276.641,333.012,274.363,328.285,272.379z
		 M357.378,279.383c-0.635,1.122-1.258,2.256-1.893,3.377c5.406-3.57,10.823-7.015,16.264-10.381
		C367.022,274.363,362.24,276.652,357.378,279.383z"/>
</g>
<text transform="matrix(1 0 0 1 10.0005 680.1709)" font-family="'HelveticaNeue-Bold'" font-size="0.0567">Created by Olena Panasovska</text>
<text transform="matrix(1 0 0 1 10.0005 680.2275)" font-family="'HelveticaNeue-Bold'" font-size="0.0567">from the Noun Project</text>
</svg>
